<?xml version="1.0" standalone="no"?>
<!DOCTYPE svg PUBLIC "-//W3C//DTD SVG 20010904//EN"
 "http://www.w3.org/TR/2001/REC-SVG-20010904/DTD/svg10.dtd">
<svg version="1.0" xmlns="http://www.w3.org/2000/svg"
 width="612.000000pt" height="612.000000pt" viewBox="0 0 612.000000 612.000000"
 preserveAspectRatio="xMidYMid meet">
<metadata>
Created by potrace 1.11, written by Peter Selinger 2001-2013
</metadata>
<g transform="translate(0.000000,612.000000) scale(0.100000,-0.100000)"
fill="#000000" stroke="none">
<path d="M892 5985 c-18 -25 -32 -50 -32 -56 0 -6 -4 -8 -9 -5 -5 3 -12 -6
-15 -19 -4 -14 -11 -23 -16 -20 -6 3 -10 -2 -10 -12 0 -10 -11 -31 -25 -47
-14 -16 -25 -33 -25 -38 0 -5 -12 -20 -26 -33 -17 -16 -22 -25 -13 -25 10 -1
9 -4 -3 -11 -10 -5 -18 -17 -18 -24 0 -8 -4 -15 -10 -15 -5 0 -12 -11 -16 -25
-3 -14 -10 -22 -15 -19 -5 3 -8 2 -7 -3 4 -12 -25 -73 -34 -73 -5 0 -8 -5 -8
-11 0 -5 -11 -26 -25 -46 -13 -20 -22 -40 -20 -44 3 -4 -2 -10 -11 -13 -8 -3
-12 -10 -9 -16 3 -5 1 -10 -5 -10 -6 0 -8 -4 -5 -10 3 -5 1 -10 -5 -10 -7 0
-10 -7 -6 -15 3 -8 2 -15 -3 -15 -9 0 -35 -51 -33 -62 1 -5 -3 -8 -9 -8 -5 0
-7 -4 -4 -10 3 -5 1 -10 -5 -10 -7 0 -10 -6 -7 -14 3 -8 -3 -24 -13 -36 -11
-13 -17 -27 -14 -31 3 -5 0 -9 -6 -9 -7 0 -10 -7 -6 -15 3 -8 -2 -19 -12 -24
-9 -6 -14 -11 -10 -11 4 0 0 -16 -8 -35 -8 -19 -11 -35 -7 -35 5 0 -1 -7 -11
-15 -11 -8 -16 -15 -12 -15 5 0 3 -7 -4 -15 -7 -9 -8 -15 -2 -15 5 0 1 -17 -9
-37 -10 -21 -19 -43 -19 -50 0 -7 -4 -21 -9 -31 -11 -19 -25 -73 -23 -84 1 -5
-3 -8 -9 -8 -5 0 -7 -4 -4 -10 3 -5 3 -16 -2 -22 -4 -7 -8 -17 -10 -23 -8 -36
-12 -53 -21 -76 -6 -15 -8 -30 -5 -33 4 -3 1 -6 -6 -6 -7 0 -10 -4 -6 -9 3 -5
1 -12 -4 -15 -5 -4 -8 -17 -5 -30 2 -14 -3 -31 -12 -40 -11 -12 -12 -16 -2
-16 10 0 10 -2 -1 -9 -7 -5 -10 -14 -7 -20 4 -6 3 -11 -1 -11 -5 0 -10 -11
-11 -25 -3 -38 -6 -49 -17 -57 -6 -5 -5 -8 4 -8 10 0 11 -3 2 -14 -6 -8 -13
-28 -14 -45 -1 -17 -4 -31 -7 -31 -6 0 -11 -33 -14 -82 0 -16 -5 -28 -10 -28
-4 0 -6 -9 -3 -20 3 -11 2 -20 -2 -20 -4 0 -7 -10 -6 -22 1 -13 0 -27 -3 -33
-3 -5 -8 -27 -10 -49 -2 -22 -8 -48 -13 -58 -7 -13 -6 -18 3 -18 9 0 9 -3 -2
-10 -11 -7 -11 -10 -2 -10 10 0 10 -5 1 -21 -6 -12 -9 -34 -7 -50 3 -16 0 -30
-5 -32 -5 -1 -10 -17 -11 -34 -1 -18 2 -30 6 -27 4 3 4 -6 -1 -19 -5 -13 -9
-54 -8 -90 1 -37 -2 -67 -6 -67 -5 0 -6 -4 -2 -9 3 -5 0 -13 -6 -17 -8 -5 -8
-9 1 -14 8 -5 9 -13 4 -21 -12 -19 -14 -39 -4 -39 5 0 5 -13 0 -30 -5 -19 -5
-30 1 -30 6 0 5 -8 -1 -20 -8 -15 -8 -20 2 -20 9 0 9 -3 -2 -10 -8 -5 -10 -10
-5 -10 12 0 13 -40 1 -58 -4 -7 -2 -12 4 -12 6 0 8 -5 3 -12 -10 -17 -13 -38
-5 -38 4 0 7 -12 8 -27 3 -118 8 -170 17 -180 6 -9 6 -13 -3 -13 -10 0 -10 -3
0 -15 10 -12 10 -15 -1 -15 -10 0 -11 -3 -3 -8 7 -4 14 -36 15 -72 2 -36 7
-68 12 -71 4 -3 8 -22 9 -42 1 -20 4 -37 7 -37 6 0 10 -32 14 -92 0 -16 4 -28
7 -28 6 0 10 -25 13 -67 0 -13 4 -23 7 -23 5 0 10 -33 13 -77 0 -7 4 -13 9
-13 4 0 8 -13 8 -28 0 -15 6 -34 12 -41 11 -11 10 -12 -2 -6 -9 5 -7 -1 5 -15
12 -14 14 -20 5 -15 -13 7 -13 6 -2 -7 7 -9 12 -20 11 -24 -1 -5 3 -22 9 -37
7 -16 12 -32 12 -37 0 -5 5 -21 12 -37 6 -15 13 -39 15 -53 2 -13 10 -28 16
-32 7 -4 8 -8 3 -8 -5 0 -3 -6 3 -13 6 -8 8 -17 4 -20 -3 -4 0 -7 7 -7 7 0 10
-3 7 -7 -4 -3 0 -17 9 -31 9 -13 12 -22 6 -18 -6 3 -5 -4 1 -19 7 -14 15 -25
20 -25 4 0 7 -9 7 -20 0 -11 5 -20 11 -20 5 0 7 -4 4 -10 -3 -5 -1 -10 5 -10
6 0 8 -4 5 -10 -3 -5 -1 -10 5 -10 6 0 8 -4 5 -10 -3 -5 -1 -10 5 -10 6 0 8
-4 5 -10 -3 -5 -1 -10 6 -10 7 0 9 -3 6 -7 -4 -3 1 -12 11 -20 9 -8 11 -11 3
-7 -9 5 -8 -2 5 -19 10 -15 22 -27 27 -27 4 0 7 -9 7 -20 0 -11 7 -20 15 -20
8 0 15 -8 15 -18 0 -10 9 -24 19 -32 11 -7 18 -17 15 -22 -3 -4 2 -8 11 -8 9
0 14 -4 11 -9 -3 -5 10 -23 29 -40 19 -17 35 -33 35 -36 0 -9 64 -64 83 -70 9
-4 17 -13 17 -22 0 -9 6 -13 15 -9 9 3 15 0 15 -10 0 -8 4 -12 10 -9 5 3 10 1
10 -5 0 -6 5 -8 10 -5 6 3 10 -1 10 -9 0 -9 3 -15 8 -15 21 4 32 -2 26 -13 -4
-7 -4 -10 0 -6 5 4 44 -11 87 -33 44 -22 84 -37 91 -33 7 4 8 3 4 -4 -4 -8 0
-12 12 -12 10 0 22 -3 26 -7 6 -7 29 -13 54 -15 6 -1 12 -4 12 -8 0 -6 16 -10
53 -11 9 0 17 -3 17 -7 0 -7 17 -11 70 -15 14 -1 27 -5 30 -9 3 -4 31 -9 63
-10 31 -2 57 -6 57 -10 0 -3 73 -7 162 -8 88 0 165 -3 170 -6 4 -3 8 -1 8 5 0
5 11 8 25 6 14 -1 27 1 30 5 2 4 18 7 34 8 16 0 38 5 49 11 11 6 22 8 25 5 7
-8 100 27 109 40 5 7 8 7 8 -2 0 -9 5 -9 18 -2 25 15 76 33 85 32 4 -1 7 3 7
8 0 6 9 10 20 10 11 0 20 5 20 11 0 5 4 8 9 5 5 -3 14 0 20 8 7 8 23 17 38 21
14 3 23 9 19 12 -3 4 6 13 21 20 52 25 73 40 66 46 -3 4 -1 7 5 7 7 0 32 20
57 44 25 24 45 41 45 39 0 -8 80 88 92 110 6 12 18 27 27 34 9 7 12 13 7 13
-5 0 0 10 12 22 20 22 22 26 22 49 0 5 5 7 12 3 6 -4 8 -3 4 4 -3 6 1 17 9 25
8 9 15 18 15 21 0 4 10 28 23 54 13 27 23 58 22 70 -1 12 2 19 6 17 4 -3 10
19 13 48 9 73 5 197 -7 197 -5 0 -4 6 2 14 9 11 9 16 1 21 -7 4 -10 16 -7 26
3 11 0 19 -6 19 -6 0 -7 3 -4 7 4 3 1 16 -6 27 -8 12 -13 29 -11 39 1 9 -2 17
-7 17 -5 0 -9 9 -9 20 0 11 -4 20 -10 20 -5 0 -9 3 -8 8 3 11 -25 82 -33 82
-3 0 -10 15 -14 33 -4 17 -8 34 -9 37 -1 3 -9 22 -19 43 -10 20 -15 42 -11 49
4 7 3 8 -4 4 -8 -5 -12 1 -12 18 0 14 -5 28 -10 31 -6 4 -8 11 -5 16 4 5 2 9
-2 9 -5 0 -8 12 -7 28 0 15 -3 29 -7 32 -4 3 -10 29 -13 57 -2 29 -7 56 -10
61 -2 4 -6 32 -7 60 -2 29 -7 52 -11 52 -5 0 -6 5 -2 12 11 17 11 58 1 58 -4
0 -4 8 1 18 5 9 9 36 8 60 0 23 2 42 5 42 3 0 5 14 4 30 -1 17 1 30 4 30 3 0
7 12 8 28 2 40 25 135 36 149 5 7 7 20 3 28 -3 8 0 15 6 15 6 0 8 3 5 7 -4 3
-2 12 3 18 6 7 11 24 12 39 1 14 6 26 10 26 4 0 7 3 6 8 -1 4 6 24 15 46 9 21
17 42 17 47 0 5 5 9 11 9 6 0 9 7 5 15 -3 8 -1 15 5 15 6 0 7 5 4 10 -3 6 -2
10 4 10 6 0 13 11 17 25 3 14 10 25 15 25 5 0 9 6 9 14 0 8 8 22 18 32 9 9 25
33 34 53 10 20 18 32 18 26 0 -5 8 2 16 18 8 15 20 27 26 27 6 0 8 3 5 7 -4 3
6 18 21 32 15 15 28 30 30 34 1 4 5 7 8 6 4 0 14 11 24 25 9 15 20 23 23 19 4
-3 7 1 7 10 0 10 7 17 15 17 8 0 15 5 15 10 0 6 11 15 25 22 13 6 22 15 19 19
-3 5 -1 9 5 9 6 0 19 10 31 22 11 12 20 18 20 13 0 -4 11 4 24 18 13 14 27 23
30 20 3 -4 6 -1 6 5 0 7 5 12 11 12 6 0 29 14 50 31 21 17 39 27 39 22 0 -4
12 6 26 22 14 17 22 24 18 16 -8 -16 7 -9 37 17 13 11 14 18 6 27 -8 9 -16 10
-24 3 -7 -6 -19 -8 -28 -5 -8 4 -17 2 -21 -4 -4 -7 -10 -6 -19 1 -9 8 -15 8
-20 0 -3 -6 -10 -8 -15 -5 -5 3 -19 1 -30 -5 -15 -8 -20 -8 -20 1 0 8 -4 8
-15 -1 -8 -7 -15 -8 -15 -3 0 11 -29 11 -48 -1 -7 -4 -43 -6 -82 -5 -47 1 -74
-2 -86 -12 -12 -10 -18 -11 -21 -2 -3 8 -13 9 -34 3 -16 -5 -29 -5 -29 -1 0 5
-11 6 -25 3 -14 -2 -23 -7 -21 -11 2 -3 -25 -4 -60 -3 -41 2 -70 -1 -79 -8 -8
-7 -15 -8 -15 -3 0 5 -7 10 -15 10 -8 0 -15 -3 -15 -7 0 -9 -32 -6 -48 4 -7 4
-12 2 -12 -4 0 -6 -5 -8 -12 -3 -18 11 -37 12 -43 3 -2 -4 -51 -8 -107 -9 -56
-1 -108 -7 -115 -13 -9 -7 -13 -7 -13 1 0 9 -5 9 -20 1 -14 -8 -20 -8 -20 0 0
8 -6 8 -20 0 -11 -6 -20 -7 -20 -3 0 10 -41 10 -58 -1 -7 -4 -12 -2 -12 4 0 6
-5 8 -12 3 -18 -11 -52 -10 -61 2 -6 6 -10 6 -14 -2 -3 -9 -32 -13 -97 -13
-76 0 -96 3 -112 19 -36 35 -62 69 -57 75 4 3 -1 6 -11 6 -9 0 -15 4 -11 9 3
5 -4 12 -14 16 -11 3 -23 16 -27 28 -4 12 -17 30 -30 40 -13 10 -24 25 -24 32
0 8 -9 16 -20 20 -11 3 -19 10 -17 14 1 5 -10 23 -26 40 -15 17 -25 31 -22 31
3 0 -6 12 -20 28 -14 15 -28 35 -31 45 -3 9 -10 17 -15 17 -5 0 -9 5 -9 11 0
6 -7 17 -15 26 -8 8 -13 19 -10 24 4 5 -1 9 -10 9 -9 0 -13 5 -10 10 3 6 0 13
-8 16 -9 3 -18 16 -21 30 -6 22 -16 37 -51 78 -5 6 -11 17 -13 24 -1 7 -13 30
-27 51 -13 21 -21 42 -18 45 4 3 0 6 -7 6 -7 0 -11 3 -7 6 3 3 -5 24 -19 45
-13 21 -24 45 -24 54 0 8 -5 15 -11 15 -5 0 -7 5 -4 10 3 6 0 13 -9 16 -8 3
-12 12 -10 19 3 7 0 16 -5 20 -6 3 -9 11 -6 16 4 5 1 9 -5 9 -6 0 -8 5 -5 10
3 6 1 10 -6 10 -7 0 -10 3 -7 6 4 3 0 17 -7 31 -8 15 -12 30 -9 35 3 4 0 8 -6
8 -6 0 -9 4 -5 9 3 5 1 12 -5 16 -5 3 -10 14 -10 23 0 9 -6 28 -13 43 -8 14
-13 33 -11 43 1 9 -4 20 -12 23 -12 4 -12 8 -2 21 11 13 11 14 -1 7 -11 -6
-13 -4 -8 8 3 10 2 17 -3 17 -5 0 -7 7 -4 15 4 8 2 15 -3 15 -7 0 -13 22 -16
68 0 6 -5 12 -10 12 -5 0 -7 9 -4 20 3 11 0 20 -6 20 -7 0 -5 5 3 10 12 8 12
10 1 10 -8 0 -11 3 -8 7 4 3 1 13 -6 21 -10 13 -9 14 3 7 12 -7 13 -6 5 6 -11
14 -17 48 -19 104 -1 17 -5 33 -10 37 -6 4 -4 13 3 22 11 13 11 16 -1 16 -8 0
-29 -20 -46 -45z"/>
<path d="M4156 4562 c-3 -5 -22 -9 -42 -10 -20 -1 -43 -7 -50 -13 -11 -9 -14
-9 -14 0 0 7 -15 4 -39 -8 -21 -11 -41 -17 -45 -14 -3 4 -6 1 -6 -5 0 -7 -5
-12 -12 -12 -6 0 -20 -8 -31 -17 -15 -14 -19 -14 -13 -3 4 8 -1 5 -10 -7 -9
-13 -23 -23 -30 -23 -8 0 -14 -4 -14 -9 0 -5 -9 -13 -20 -16 -11 -4 -19 -9
-17 -13 4 -10 -71 -80 -79 -73 -4 3 -4 1 0 -6 3 -6 -5 -23 -19 -37 -13 -13
-26 -31 -27 -38 -2 -7 -11 -20 -20 -29 -10 -9 -15 -19 -11 -23 3 -3 2 -6 -4
-6 -10 0 -28 -46 -25 -62 1 -5 -2 -8 -6 -8 -10 0 -29 -52 -37 -100 -3 -19 -10
-36 -14 -38 -5 -2 -7 -12 -4 -22 3 -11 1 -33 -5 -49 -8 -22 -7 -31 1 -35 8 -3
8 -5 -1 -5 -8 -1 -10 -6 -5 -13 9 -15 13 -33 15 -70 0 -16 5 -28 10 -28 4 0 7
-3 6 -7 -3 -16 14 -63 22 -58 4 3 10 -9 14 -26 3 -17 10 -28 14 -25 5 3 18
-10 28 -29 10 -19 22 -35 27 -35 4 0 20 -11 34 -24 15 -14 30 -23 35 -20 4 3
8 0 8 -6 0 -6 4 -9 9 -5 5 3 17 -2 26 -11 9 -9 19 -14 22 -11 3 4 20 0 38 -7
25 -11 36 -11 44 -3 9 9 14 9 20 -1 5 -8 24 -12 49 -11 32 2 40 7 39 21 -1 9
-7 20 -14 22 -7 3 -13 17 -13 31 0 14 -4 25 -8 25 -5 0 -10 15 -11 33 -4 54
-7 72 -15 85 -4 7 -2 12 4 12 6 0 8 5 4 12 -10 16 -13 48 -4 48 3 0 5 16 5 35
-1 19 1 35 5 35 4 0 7 6 7 13 1 29 15 81 26 101 6 11 10 24 9 29 -1 4 3 7 9 7
6 0 9 6 6 13 -2 6 5 20 16 30 11 9 17 17 13 17 -4 0 6 19 23 42 31 42 39 68
22 68 -9 0 -9 25 0 34 2 2 24 6 49 9 24 3 46 10 48 16 2 6 8 9 13 5 5 -3 9 0
9 5 0 6 3 10 8 10 20 -3 32 2 32 16 0 8 6 12 14 9 7 -3 20 1 27 8 24 23 158
78 197 80 6 1 12 6 12 11 0 6 3 7 7 4 3 -4 12 -2 20 4 9 9 13 8 13 0 0 -8 5
-9 19 -1 11 5 36 11 55 12 20 2 36 5 36 8 0 3 18 5 40 4 25 0 41 5 44 13 3 8
2 12 -3 8 -5 -3 -17 2 -25 11 -9 8 -16 12 -16 8 0 -3 -7 -1 -15 6 -8 6 -19 9
-25 5 -5 -3 -10 -3 -10 2 0 14 -134 66 -144 56 -3 -4 -6 -1 -6 5 0 6 -9 9 -20
7 -11 -2 -24 4 -30 13 -8 12 -13 14 -16 5 -4 -9 -11 -10 -24 -3 -10 5 -42 12
-72 14 -29 3 -53 6 -53 6 0 1 -15 2 -33 3 -17 1 -32 -1 -32 -4 0 -8 -32 -5
-47 4 -6 4 -14 3 -17 -1z"/>
<path d="M3703 4477 c-3 -5 -16 -7 -29 -4 -13 2 -25 0 -26 -4 -2 -4 -19 -11
-38 -14 -19 -3 -39 -10 -46 -15 -6 -6 -14 -7 -18 -2 -4 4 -12 -2 -18 -12 -8
-15 -12 -16 -19 -5 -8 11 -11 11 -20 -4 -6 -9 -14 -15 -20 -12 -5 4 -9 1 -9
-5 0 -6 -5 -8 -10 -5 -6 3 -13 -1 -16 -9 -3 -9 -10 -14 -14 -11 -5 3 -29 -11
-54 -30 -25 -19 -46 -32 -46 -27 -1 4 -7 -4 -15 -18 -8 -14 -14 -21 -15 -16 0
5 -27 -26 -60 -69 -33 -42 -57 -81 -54 -86 3 -5 0 -9 -6 -9 -7 0 -10 -7 -6
-15 3 -8 1 -15 -4 -15 -6 0 -10 -9 -10 -20 0 -11 -6 -20 -12 -20 -10 0 -10 -3
0 -9 12 -7 12 -11 0 -22 -11 -9 -13 -24 -8 -51 4 -22 3 -38 -2 -38 -5 0 -8 -6
-5 -12 2 -7 0 -25 -4 -40 -5 -18 -4 -28 3 -28 6 0 6 -6 -2 -15 -7 -8 -8 -15
-3 -15 5 0 10 -21 10 -46 1 -27 7 -51 15 -55 10 -7 10 -9 0 -9 -9 0 -10 -5 -2
-19 5 -11 10 -29 10 -40 0 -12 5 -21 10 -21 6 0 10 -9 10 -20 0 -11 4 -20 9
-20 8 0 24 -37 22 -52 -1 -5 6 -8 14 -8 8 0 15 -6 15 -14 0 -8 9 -18 20 -21
11 -3 20 -11 20 -16 0 -5 9 -9 21 -9 11 0 17 -4 14 -10 -3 -5 1 -10 10 -10 9
0 23 -7 31 -15 8 -8 21 -12 29 -9 9 4 15 0 15 -9 0 -10 8 -14 25 -12 14 1 25
-1 25 -4 0 -11 103 -10 123 0 11 7 17 6 17 -2 0 -8 4 -8 15 1 8 6 19 9 25 5 5
-3 10 -1 10 5 0 7 7 9 16 6 9 -4 13 -2 8 5 -4 8 1 9 15 4 13 -4 21 -2 21 5 0
6 5 8 10 5 6 -3 10 -3 10 0 0 10 -61 65 -71 65 -5 0 -9 7 -9 16 0 8 -4 13 -9
10 -8 -6 -25 30 -22 47 1 5 -3 6 -8 2 -6 -3 -13 6 -17 20 -3 14 -10 25 -14 25
-4 0 -11 10 -15 23 -12 35 -18 59 -16 70 0 4 -3 7 -7 7 -4 0 -9 14 -10 31 -1
17 -7 39 -12 49 -6 11 -5 21 2 28 9 9 9 12 -1 12 -10 0 -11 3 -3 13 7 8 7 18
2 27 -5 9 -5 19 2 27 7 9 7 13 -1 13 -7 0 -9 5 -5 12 12 20 15 108 3 129 -7
15 -6 19 6 19 14 0 71 68 83 100 8 22 84 134 96 142 7 5 7 8 1 8 -5 0 6 14 25
31 19 17 29 28 23 25 -20 -11 -15 1 12 28 14 14 25 23 25 20 0 -3 6 1 14 8 8
7 12 16 9 21 -2 4 1 7 6 7 6 0 11 4 11 10 0 11 -100 8 -107 -3z"/>
<path d="M4666 4361 c-4 -6 -20 -9 -36 -7 -16 2 -27 -1 -24 -5 3 -5 -1 -9 -8
-10 -28 -1 -51 -8 -57 -16 -3 -5 -16 -8 -28 -7 -13 1 -23 -3 -23 -7 0 -5 -9
-9 -20 -9 -11 0 -20 -5 -20 -11 0 -6 -7 -8 -16 -5 -10 4 -13 2 -8 -6 5 -8 2
-9 -9 -5 -11 4 -17 1 -17 -8 0 -9 -6 -12 -15 -9 -8 4 -15 2 -15 -3 0 -4 -9
-14 -21 -21 -17 -11 -20 -11 -14 0 3 7 0 5 -8 -4 -8 -10 -19 -18 -25 -18 -5 0
-13 -7 -16 -16 -4 -9 -9 -14 -12 -11 -4 3 -26 -14 -50 -37 -24 -24 -45 -41
-48 -39 -2 3 -7 -5 -11 -16 -3 -12 -11 -21 -16 -21 -6 0 -7 -4 -4 -10 3 -5 2
-10 -4 -10 -5 0 -13 -9 -16 -20 -4 -11 -11 -18 -16 -15 -5 3 -6 -2 -2 -11 4
-11 2 -15 -4 -11 -10 6 -27 -27 -24 -45 1 -5 -3 -8 -7 -8 -5 0 -9 -6 -10 -12
-5 -42 -15 -78 -22 -78 -10 0 -8 -20 3 -37 5 -8 3 -13 -3 -13 -6 0 -8 -5 -4
-12 8 -13 10 -26 15 -95 2 -27 8 -44 18 -48 12 -5 13 -8 2 -14 -10 -6 -9 -11
3 -24 9 -8 16 -22 16 -30 0 -8 7 -20 15 -27 9 -7 13 -15 10 -18 -3 -3 7 -14
22 -24 16 -10 24 -18 20 -18 -5 0 -2 -7 7 -15 8 -8 22 -15 30 -15 9 0 16 -7
16 -16 0 -8 4 -13 9 -10 5 3 11 -1 15 -9 3 -8 11 -15 18 -15 8 0 20 -9 28 -19
7 -11 17 -18 22 -15 4 3 8 0 8 -5 0 -6 5 -11 11 -11 7 0 10 17 8 44 -2 24 0
42 5 39 5 -3 7 6 4 21 -3 16 0 33 8 40 7 8 11 16 8 19 -3 3 3 22 12 43 9 22
18 41 19 44 6 25 52 94 89 135 25 28 46 54 46 58 0 5 4 6 9 2 6 -3 21 7 35 22
14 15 26 23 26 18 0 -6 3 -6 8 1 10 15 102 76 102 68 0 -3 7 -1 15 6 8 7 15
10 15 6 0 -3 9 2 20 11 11 10 20 25 20 35 0 10 7 18 15 18 8 0 15 -6 15 -12 0
-10 2 -10 8 -1 5 8 13 9 22 3 8 -6 80 -10 161 -10 99 0 149 -4 157 -12 9 -9
12 -9 12 1 0 7 4 9 10 6 5 -3 19 -8 30 -11 11 -2 30 -6 43 -9 12 -3 38 -8 57
-11 19 -4 38 -11 41 -17 4 -5 20 -9 35 -9 16 0 32 -5 36 -11 6 -10 27 -17 60
-20 9 -1 15 -4 12 -8 -2 -4 5 -9 15 -12 13 -3 18 0 17 11 -2 9 -8 18 -14 20
-7 2 -10 8 -6 13 3 5 -2 9 -11 9 -9 0 -14 4 -11 8 3 5 -10 26 -29 47 -19 21
-35 43 -35 49 0 6 -16 22 -34 36 -19 14 -32 28 -29 33 2 4 -3 7 -12 7 -9 0
-13 5 -10 10 3 6 -1 10 -9 10 -8 0 -18 9 -21 20 -3 11 -13 20 -21 20 -8 0 -14
5 -14 10 0 6 -7 10 -16 10 -8 0 -12 5 -9 10 3 6 -1 10 -9 10 -9 0 -16 5 -16
10 0 6 -7 10 -15 10 -7 0 -18 7 -23 16 -5 9 -13 16 -18 16 -5 0 -8 4 -6 9 1 5
-1 9 -5 8 -16 -2 -53 14 -53 23 0 5 -5 6 -10 3 -6 -3 -13 0 -16 9 -3 8 -12 12
-20 9 -7 -3 -17 3 -20 12 -5 13 -9 14 -15 3 -7 -10 -9 -11 -9 0 0 7 -4 11 -9
7 -5 -3 -12 -1 -16 5 -4 6 -11 8 -16 5 -5 -4 -9 -2 -9 2 0 5 -14 10 -31 11
-18 1 -37 6 -43 9 -14 9 -46 10 -72 1 -12 -4 -27 -1 -33 5 -6 6 -11 7 -11 1 0
-5 -9 -10 -19 -10 -11 0 -17 4 -15 8 7 11 -8 10 -26 -2 -9 -6 -17 -5 -21 2 -5
7 -9 7 -13 -1z"/>
<path d="M3050 4099 c-16 -15 -30 -25 -30 -21 0 4 -7 -2 -15 -12 -8 -11 -15
-16 -15 -12 0 4 -11 -5 -25 -20 -14 -15 -25 -23 -25 -19 0 4 -18 -15 -41 -44
-22 -28 -45 -51 -50 -51 -6 0 -8 -4 -5 -9 3 -5 -1 -14 -9 -21 -20 -16 -46 -70
-39 -81 3 -5 0 -9 -5 -9 -6 0 -11 -9 -11 -21 0 -11 -4 -18 -9 -14 -6 3 -8 -3
-6 -15 2 -11 0 -22 -5 -25 -5 -3 -7 -12 -3 -20 3 -8 1 -15 -3 -15 -7 0 -10
-131 -3 -150 1 -3 1 -8 0 -12 0 -4 6 -19 14 -34 8 -15 12 -31 9 -36 -3 -4 0
-8 5 -8 6 0 11 -9 11 -20 0 -11 5 -20 12 -20 6 0 8 -3 5 -7 -4 -4 5 -20 20
-36 16 -17 22 -26 14 -22 -16 9 -7 -9 16 -35 8 -8 21 -24 29 -35 9 -11 13 -13
9 -5 -4 8 3 4 14 -10 11 -14 21 -29 21 -33 0 -5 4 -6 9 -2 5 3 12 -3 16 -14 3
-11 13 -22 21 -25 10 -4 13 -1 9 7 -4 6 0 4 8 -5 8 -10 19 -18 25 -18 6 0 12
-4 14 -10 2 -5 15 -11 31 -12 15 -1 27 -6 27 -11 0 -5 46 -6 103 -4 121 6 127
7 127 21 0 6 4 5 9 -2 7 -11 9 -10 15 3 3 9 10 14 15 11 5 -3 12 1 15 10 3 8
10 12 16 9 5 -3 10 2 10 12 0 15 2 16 10 3 9 -13 14 -7 11 13 0 4 4 7 10 7 7
0 22 11 34 25 20 20 21 26 9 36 -8 6 -27 12 -44 14 -16 1 -35 6 -42 12 -7 5
-32 17 -55 28 -24 10 -43 22 -43 27 0 4 -6 8 -14 8 -8 0 -24 12 -35 26 -12 15
-21 24 -21 20 0 -4 -7 -1 -15 8 -8 8 -15 19 -15 25 0 5 -9 13 -20 16 -11 4
-18 11 -15 16 4 5 1 9 -5 9 -6 0 -8 5 -5 10 3 6 1 10 -4 10 -6 0 -11 6 -11 14
0 8 -7 17 -16 20 -8 3 -12 10 -9 16 3 5 1 10 -4 10 -6 0 -11 6 -11 14 0 7 -7
26 -14 42 -8 15 -13 31 -10 36 3 4 0 8 -6 8 -14 0 -11 99 3 118 6 8 6 12 -2
12 -7 0 -9 5 -4 13 11 18 13 37 2 37 -5 0 -4 11 1 25 7 18 6 25 -2 25 -9 0 -9
3 0 12 7 7 12 33 12 59 0 26 5 51 11 55 8 4 7 9 -2 15 -10 6 -11 9 -1 9 6 0
12 9 12 21 0 11 4 28 9 38 15 28 -13 22 -49 -10z"/>
<path d="M4890 3842 c0 -5 -20 -13 -45 -17 -29 -4 -43 -10 -39 -17 4 -7 2 -8
-4 -4 -6 4 -24 0 -40 -8 -16 -8 -32 -12 -36 -9 -3 4 -6 1 -6 -5 0 -7 -3 -11
-7 -10 -10 3 -142 -85 -138 -92 1 -3 -3 -11 -11 -18 -8 -7 -14 -9 -14 -5 0 4
-10 -8 -21 -27 -12 -19 -20 -36 -18 -36 2 -1 -5 -11 -15 -23 -11 -12 -16 -24
-13 -28 4 -3 -1 -12 -11 -20 -11 -10 -12 -12 -2 -8 13 6 13 5 0 -7 -8 -7 -17
-24 -18 -38 -2 -14 -8 -29 -12 -35 -4 -5 -7 -40 -7 -78 1 -37 -1 -67 -5 -67
-3 0 -4 -9 -1 -20 3 -11 10 -20 15 -20 5 0 6 -5 3 -10 -4 -6 -1 -18 7 -27 11
-14 11 -15 0 -9 -10 6 -10 0 2 -22 9 -17 16 -38 16 -47 0 -8 5 -15 11 -15 5 0
8 -4 4 -9 -3 -5 0 -13 6 -16 5 -4 8 -13 5 -20 -2 -7 2 -16 10 -19 8 -3 14 -9
13 -13 -3 -20 2 -23 16 -9 8 8 15 20 15 26 0 6 7 13 15 16 8 4 12 10 9 15 -3
5 2 12 10 15 8 3 18 15 22 26 3 11 8 17 11 15 2 -3 22 12 42 34 21 21 40 37
43 34 2 -2 17 7 32 20 16 14 35 25 43 25 7 0 13 5 13 11 0 5 5 7 10 4 6 -3 10
-2 10 2 0 8 82 38 105 38 6 0 15 3 20 7 22 14 134 28 221 28 86 0 110 7 113
32 6 35 14 39 37 17 13 -12 24 -27 24 -32 0 -5 11 -22 25 -39 14 -16 25 -27
25 -23 0 4 29 -9 65 -29 36 -20 65 -33 65 -30 0 3 6 -1 14 -8 31 -29 56 -47
56 -40 0 4 5 -1 11 -10 5 -10 16 -18 22 -18 7 0 19 -9 27 -20 8 -11 20 -20 27
-20 6 0 15 -9 18 -21 4 -11 9 -19 11 -16 6 5 94 -83 94 -94 0 -4 9 -10 19 -14
11 -3 18 -12 15 -19 -3 -7 1 -16 9 -19 8 -3 28 -27 45 -53 18 -26 32 -42 32
-35 0 7 4 10 8 7 4 -2 8 4 8 15 0 10 -4 19 -9 19 -5 0 -5 6 2 13 8 10 7 17 -1
25 -9 9 -9 12 1 12 9 0 10 4 4 13 -15 18 -22 67 -10 67 6 0 2 7 -9 16 -10 8
-13 12 -5 8 10 -5 11 -1 6 15 -9 29 -18 73 -19 94 0 9 -5 17 -10 17 -5 0 -7 3
-3 6 3 3 -1 24 -9 46 -7 22 -11 44 -8 49 3 5 0 9 -6 9 -6 0 -9 4 -5 9 3 5 1
12 -5 16 -6 4 -8 11 -5 16 4 5 -1 12 -9 15 -9 3 -13 10 -10 15 3 5 -1 9 -8 9
-11 0 -11 2 0 9 11 7 11 11 -1 23 -9 8 -17 24 -19 34 -2 10 -12 27 -23 37 -11
10 -14 16 -7 12 16 -8 -44 80 -80 118 -16 16 -28 32 -28 37 0 5 -9 12 -20 15
-11 3 -20 11 -20 16 0 6 -7 17 -15 25 -8 9 -15 13 -15 9 0 -4 -12 3 -26 14
-15 11 -31 18 -37 14 -6 -3 -7 -1 -3 5 4 7 1 12 -8 12 -9 0 -16 4 -16 8 0 5
-19 15 -42 22 -24 8 -58 22 -76 32 -19 10 -30 13 -26 7 5 -9 2 -10 -12 -5 -10
5 -28 11 -39 14 -11 2 -26 9 -32 15 -9 6 -13 6 -13 -2 0 -8 -6 -9 -17 -2 -27
14 -282 14 -299 0 -11 -9 -17 -9 -29 1 -9 7 -15 8 -15 2z"/>
<path d="M2651 3507 c-6 -8 -8 -17 -4 -20 3 -4 1 -7 -5 -7 -7 0 -11 -3 -10 -7
2 -5 -6 -28 -16 -53 -10 -25 -20 -55 -22 -68 -1 -13 -7 -29 -11 -35 -5 -7 -8
-22 -7 -34 0 -13 -1 -23 -5 -23 -3 0 -5 -34 -3 -75 2 -41 7 -75 10 -75 4 0 8
-17 9 -37 1 -20 7 -39 14 -43 6 -4 8 -13 5 -19 -4 -6 0 -14 8 -17 9 -3 13 -10
10 -15 -3 -5 0 -9 6 -9 6 0 8 -4 5 -10 -3 -5 1 -10 9 -10 8 0 18 -9 21 -20 3
-11 13 -20 21 -20 8 0 13 -4 9 -9 -3 -5 3 -12 14 -16 10 -3 29 -14 41 -25 12
-11 26 -17 30 -15 4 3 10 -2 14 -10 3 -8 12 -12 21 -9 9 4 15 0 15 -10 0 -10
6 -13 15 -10 8 4 15 1 15 -6 0 -6 4 -9 9 -6 5 4 12 0 14 -6 4 -10 6 -9 6 1 1
11 4 11 16 1 8 -7 22 -10 30 -6 8 3 15 1 15 -4 0 -13 117 -13 125 -1 3 6 14 8
25 6 11 -2 20 1 20 7 0 5 7 8 15 4 8 -3 15 -1 15 4 0 6 9 10 20 10 11 0 20 5
20 10 0 6 8 10 18 10 17 1 86 48 91 62 2 4 5 17 8 28 3 11 9 20 13 20 4 0 7
16 6 35 -1 19 2 35 5 35 14 0 17 29 4 46 -10 14 -16 16 -26 7 -14 -10 -68 -23
-101 -24 -10 0 -18 -4 -18 -8 0 -9 -80 1 -98 13 -7 4 -12 2 -12 -5 0 -10 -3
-10 -12 -1 -7 7 -22 12 -35 12 -13 0 -23 5 -23 10 0 6 -4 9 -8 8 -12 -4 -112
44 -112 54 0 5 -4 6 -10 3 -5 -3 -10 1 -10 9 0 8 -5 18 -12 22 -7 5 -8 2 -3
-7 4 -8 -4 -2 -19 13 -14 15 -26 32 -26 38 0 5 -5 10 -11 10 -5 0 -7 5 -4 10
3 6 0 13 -9 16 -8 3 -12 12 -9 20 3 8 -1 14 -8 14 -7 0 -9 3 -6 6 3 4 -3 18
-13 32 -11 13 -20 33 -20 43 0 11 -5 19 -11 19 -5 0 -7 5 -4 10 3 6 1 10 -4
10 -6 0 -10 3 -10 8 1 4 0 9 -1 12 -1 3 -3 12 -5 20 -2 8 -9 29 -16 45 -7 17
-12 33 -11 38 3 11 -4 8 -17 -6z"/>
<path d="M3878 3419 c-15 -4 -29 -4 -32 -1 -3 3 -6 0 -6 -5 0 -6 -8 -10 -17
-9 -18 3 -44 -15 -37 -25 2 -4 -3 -9 -11 -13 -17 -6 -68 -106 -54 -106 6 0 7
-4 4 -10 -6 -10 24 -84 32 -76 3 2 14 -5 26 -17 l22 -22 5 61 c3 34 11 68 19
77 7 10 10 17 7 17 -4 0 -1 6 6 14 7 8 14 13 16 11 2 -2 16 10 32 25 16 16 43
31 60 35 42 9 38 40 -5 40 -17 0 -32 3 -35 6 -3 3 -17 2 -32 -2z"/>
<path d="M3633 3343 c3 -5 -1 -14 -9 -21 -8 -7 -14 -9 -14 -5 -1 11 -18 -20
-18 -31 0 -5 -5 -12 -12 -16 -6 -4 -12 -13 -13 -21 -2 -8 -6 -20 -10 -26 -5
-7 -5 -13 0 -13 4 0 9 -14 10 -32 1 -17 6 -34 11 -37 5 -3 13 -16 17 -29 4
-13 9 -21 13 -18 3 3 16 -1 28 -9 13 -8 25 -11 28 -6 4 5 15 7 26 4 26 -7 28
28 3 48 -17 13 -17 13 -3 -6 14 -18 13 -19 -1 -8 -36 29 -50 154 -24 216 5 13
2 17 -15 17 -11 0 -19 -3 -17 -7z"/>
<path d="M4013 3330 c-18 -11 -33 -17 -33 -13 0 3 -16 -14 -35 -38 -31 -38
-35 -50 -33 -94 1 -36 8 -56 24 -72 23 -23 37 -21 27 3 -3 8 0 14 6 14 6 0 11
5 11 11 0 20 73 88 102 94 15 4 28 10 28 13 0 4 36 5 79 2 44 -3 77 -2 75 2
-2 3 2 9 8 11 8 3 6 6 -5 6 -10 1 -16 5 -13 9 3 5 -6 15 -19 22 -14 7 -25 17
-25 22 0 5 -4 6 -10 3 -5 -3 -10 -1 -10 5 0 6 -4 9 -9 5 -5 -3 -12 -1 -15 3
-3 5 -31 10 -63 11 -43 1 -66 -4 -90 -19z"/>
<path d="M5028 3219 c-2 -4 -19 -8 -38 -10 -19 -2 -39 -6 -45 -10 -5 -3 -23
-10 -40 -14 -58 -16 -107 -40 -98 -48 3 -4 -3 -7 -15 -7 -12 0 -22 -4 -22 -9
0 -5 -9 -13 -20 -16 -11 -4 -18 -11 -15 -16 4 -5 0 -9 -8 -9 -8 0 -18 -7 -21
-16 -3 -8 -9 -14 -13 -11 -5 2 -18 -7 -30 -20 -12 -13 -19 -23 -16 -23 4 0 -6
-15 -23 -32 -36 -40 -66 -93 -57 -102 3 -3 1 -6 -6 -6 -8 0 -9 -5 -1 -19 7
-13 7 -22 0 -26 -5 -3 -10 -26 -10 -51 0 -25 -5 -54 -10 -65 -8 -14 -7 -19 2
-19 9 0 9 -3 -2 -10 -8 -5 -10 -10 -5 -10 12 0 13 -40 1 -58 -4 -7 -2 -12 4
-12 6 0 9 -4 5 -9 -11 -19 13 -20 33 -1 12 11 25 20 31 20 5 0 12 6 14 13 4 9
6 9 6 -1 1 -9 7 -8 26 4 13 8 29 13 35 9 5 -3 10 -2 10 4 0 5 9 8 20 6 11 -2
20 1 20 7 0 5 7 8 15 5 8 -4 17 -2 20 3 3 4 16 7 30 5 14 -1 25 2 25 7 0 5 4
7 8 4 4 -2 36 -6 70 -8 34 -1 62 -5 62 -8 0 -3 16 -6 36 -7 19 -1 42 -7 50
-14 9 -8 14 -8 14 -1 0 7 20 1 45 -13 25 -13 43 -19 40 -14 -3 5 1 6 9 3 9 -3
16 -11 16 -16 0 -6 7 -8 15 -4 8 3 15 1 15 -4 0 -6 3 -10 8 -9 17 3 51 -14 46
-22 -3 -5 4 -9 15 -9 12 0 21 -4 21 -10 0 -5 7 -10 15 -10 8 0 15 -4 15 -9 0
-5 9 -11 19 -14 22 -5 85 55 73 69 -4 4 -1 4 6 0 7 -4 10 -12 7 -17 -4 -5 -1
-9 6 -9 8 0 8 -4 -1 -15 -7 -8 -9 -15 -4 -15 5 0 10 -15 11 -33 2 -17 5 -39 7
-47 12 -45 19 -60 29 -60 6 0 8 -3 5 -6 -3 -3 7 -19 23 -37 16 -17 27 -33 24
-35 -2 -2 5 -14 16 -26 23 -24 119 -211 119 -232 0 -8 5 -14 10 -14 6 0 10 -5
10 -11 0 -5 -6 -7 -12 -3 -7 4 -5 -2 5 -14 11 -11 16 -25 13 -31 -3 -5 -2 -11
3 -13 6 -1 12 -14 14 -28 3 -14 10 -37 15 -51 6 -15 8 -30 5 -33 -4 -3 -1 -6
5 -6 6 0 9 -7 6 -15 -4 -8 -1 -15 6 -15 10 0 10 -3 0 -15 -9 -11 -9 -15 -1
-15 7 0 10 -4 6 -9 -3 -5 -1 -12 5 -16 6 -4 8 -10 5 -15 -3 -5 -3 -21 1 -36
l7 -27 19 37 c10 20 16 42 12 48 -4 7 -3 8 4 4 8 -5 12 2 12 18 0 14 4 26 10
26 5 0 9 3 8 8 -1 8 10 58 19 82 4 8 5 18 5 23 -1 4 2 7 6 7 5 0 9 6 9 13 2
39 17 93 27 99 8 6 8 8 -1 8 -9 0 -8 10 3 36 8 20 13 39 10 41 -3 3 -1 14 5
24 7 14 6 19 -2 19 -8 0 -8 4 -1 13 6 7 12 31 14 52 2 22 8 43 13 47 7 5 6 8
0 8 -12 0 -13 40 -1 58 4 7 2 12 -4 12 -6 0 -8 5 -3 13 11 18 12 37 2 37 -6 0
-5 8 1 20 7 13 7 20 1 20 -6 0 -8 7 -5 15 4 8 1 22 -6 30 -10 12 -10 15 1 15
11 0 11 2 -1 10 -10 7 -11 10 -2 10 10 0 9 7 -3 30 -8 16 -15 32 -14 35 3 18
-15 65 -24 65 -7 0 -6 4 3 10 13 9 13 12 -3 21 -9 6 -15 14 -12 20 4 5 2 9 -2
9 -5 0 -17 16 -27 35 -11 19 -23 35 -28 35 -5 0 -6 5 -3 10 3 6 -1 13 -9 16
-9 3 -16 11 -16 17 0 6 -17 26 -37 45 -21 20 -31 32 -23 28 8 -5 2 3 -13 15
-16 13 -50 45 -77 71 -26 26 -51 44 -54 41 -3 -4 -6 -1 -6 5 0 7 -5 12 -10 12
-6 0 -23 11 -37 24 -15 14 -30 23 -35 20 -4 -3 -8 -1 -8 4 0 5 -13 15 -30 22
-16 7 -30 17 -30 23 0 6 -3 8 -6 4 -3 -3 -27 5 -52 18 -26 13 -50 21 -54 19
-4 -3 -8 0 -8 7 0 7 -3 10 -6 6 -4 -3 -22 0 -40 8 -22 9 -34 10 -34 3 0 -7 -4
-7 -13 1 -8 6 -17 8 -20 4 -4 -3 -7 -2 -7 3 0 11 -40 11 -58 0 -7 -4 -12 -2
-12 4 0 6 -5 8 -12 3 -17 -10 -38 -13 -38 -4 0 9 -39 9 -42 0z"/>
<path d="M4180 3187 c-3 -3 -20 -7 -38 -10 -18 -3 -42 -15 -53 -28 -10 -12
-19 -18 -19 -13 0 5 -9 -6 -21 -25 -13 -21 -19 -45 -17 -62 3 -16 0 -31 -6
-33 -7 -3 -7 -5 1 -5 6 -1 9 -10 6 -23 -4 -19 -3 -20 6 -8 6 8 11 11 11 6 0
-5 9 3 21 18 11 14 29 26 40 26 10 0 19 4 19 9 0 13 143 11 159 -2 11 -9 13
-9 8 0 -5 8 -1 8 18 0 14 -7 25 -15 25 -19 0 -5 9 -8 20 -8 11 0 20 -4 20 -10
0 -5 7 -10 15 -10 8 0 15 -4 15 -10 0 -5 7 -10 15 -10 8 0 15 -8 15 -17 1 -17
1 -17 11 0 7 13 7 22 0 31 -6 7 -8 16 -4 19 3 4 1 7 -5 7 -7 0 -12 5 -12 11 0
5 6 7 13 3 6 -4 2 4 -10 18 -13 13 -23 29 -23 35 0 11 -60 68 -74 70 -5 1 -12
6 -16 12 -3 7 -21 13 -38 14 -18 1 -32 7 -32 12 0 6 -5 3 -10 -5 -7 -11 -10
-11 -10 -2 0 9 -5 10 -19 2 -13 -7 -20 -7 -23 1 -2 6 -6 8 -8 6z"/>
<path d="M3457 3150 c-3 -11 0 -20 6 -20 8 0 7 -4 -1 -12 -14 -14 -16 -48 -3
-48 5 0 8 -8 7 -17 -3 -18 24 -52 37 -46 4 2 7 -3 7 -12 0 -11 5 -15 14 -12 8
3 17 -1 21 -10 4 -12 9 -13 17 -5 6 6 17 8 24 5 8 -3 17 2 20 11 3 9 10 13 15
10 5 -3 9 4 9 16 0 12 -4 18 -10 15 -5 -3 -10 -2 -10 4 0 6 -7 8 -15 5 -9 -4
-23 3 -34 15 -10 11 -21 18 -25 14 -3 -3 -6 1 -6 10 0 10 -4 17 -10 17 -5 0
-10 9 -10 20 0 11 -5 20 -11 20 -6 0 -9 9 -6 20 4 14 0 20 -13 20 -10 0 -20
-9 -23 -20z"/>
<path d="M4170 2976 c-7 -9 -15 -14 -19 -12 -10 6 -76 -47 -79 -64 -2 -8 -9
-18 -15 -22 -7 -4 -7 -8 -2 -8 6 0 3 -5 -5 -10 -11 -7 -11 -10 -2 -10 8 0 10
-5 6 -12 -6 -10 -5 -10 7 -1 9 7 20 9 29 3 9 -6 18 -5 23 3 7 9 10 9 13 0 4
-8 13 -9 29 -3 15 6 27 6 30 0 3 -5 12 -7 19 -4 7 3 20 -1 27 -9 8 -7 20 -12
27 -9 6 2 12 -1 12 -8 0 -6 5 -8 10 -5 6 3 10 3 10 -2 0 -4 23 -32 50 -62 28
-30 50 -60 50 -68 0 -7 5 -13 10 -13 6 0 10 -7 10 -16 0 -15 23 -44 34 -44 3
0 6 11 6 24 0 14 5 28 11 32 8 5 8 9 -1 14 -7 5 -9 13 -4 21 10 17 12 59 2 59
-4 0 -7 3 -7 8 4 24 -3 53 -16 65 -11 12 -12 17 -2 20 7 3 4 6 -6 6 -10 1 -16
5 -12 10 3 5 -4 16 -15 24 -11 7 -17 17 -13 20 5 6 -4 9 -23 6 -3 0 -14 9 -23
20 -10 12 -25 21 -33 21 -8 0 -18 4 -24 10 -5 5 -28 11 -49 12 -22 2 -43 7
-46 11 -3 4 -12 1 -19 -7z"/>
<path d="M3424 2942 c1 -19 9 -37 15 -42 7 -4 13 -11 13 -16 0 -12 17 -41 18
-30 0 4 12 1 26 -9 19 -12 36 -15 65 -10 22 4 38 9 35 12 -3 3 1 12 9 20 17
17 19 39 5 48 -5 3 -10 2 -10 -4 0 -9 -8 -11 -55 -11 -47 0 -55 2 -55 11 0 6
-4 7 -10 4 -5 -3 -10 2 -10 11 0 10 -3 15 -6 11 -4 -3 -15 4 -25 16 l-19 22 4
-33z"/>
<path d="M2617 2850 c-3 -11 -1 -20 4 -20 4 0 6 -7 3 -15 -4 -8 -1 -22 6 -30
8 -10 9 -15 2 -15 -6 0 -9 -6 -7 -12 2 -7 7 -24 9 -38 3 -14 8 -36 11 -50 3
-14 8 -32 10 -40 2 -8 4 -17 5 -20 1 -3 2 -8 1 -12 0 -5 4 -8 10 -8 5 0 7 -4
4 -10 -3 -5 -1 -10 4 -10 6 0 11 -5 11 -11 0 -14 53 -89 62 -89 4 0 21 -13 36
-30 16 -16 32 -27 35 -23 4 3 7 1 7 -5 0 -7 3 -11 8 -10 4 0 14 -1 22 -5 56
-21 78 -25 89 -14 8 8 11 8 11 -2 0 -7 5 -9 13 -4 18 11 37 13 37 3 0 -5 14
-5 30 0 20 6 30 5 30 -2 0 -7 4 -7 13 1 8 6 17 8 20 4 4 -3 7 -1 7 6 0 7 4 10
9 7 12 -8 143 48 134 57 -3 4 -1 8 5 8 27 3 31 4 39 13 5 5 2 6 -7 2 -8 -4 -4
2 10 13 14 11 22 21 19 21 -4 0 9 17 28 37 18 21 36 48 39 60 4 13 10 23 15
23 11 0 12 114 2 124 -8 7 -9 11 -12 39 -1 6 -5 18 -10 26 -7 12 -14 10 -38
-8 -15 -13 -27 -25 -25 -27 1 -2 -1 -5 -5 -5 -5 -1 -18 -16 -30 -32 -13 -17
-23 -25 -23 -17 0 9 -5 7 -15 -6 -8 -10 -15 -15 -15 -10 0 6 -6 2 -12 -7 -7
-9 -22 -18 -33 -20 -11 -2 -28 -7 -38 -12 -10 -4 -21 -5 -24 -1 -4 3 -15 -2
-26 -11 -14 -12 -21 -14 -24 -6 -3 8 -13 9 -34 3 -18 -5 -29 -5 -29 1 0 6 -8
5 -20 -1 -15 -8 -20 -8 -20 2 0 9 -3 9 -10 -2 -5 -8 -10 -10 -10 -4 0 7 -12
10 -29 8 -19 -2 -31 2 -35 12 -3 8 -10 13 -15 9 -6 -3 -14 2 -19 10 -4 9 -18
17 -30 18 -12 1 -25 9 -28 19 -3 10 -10 18 -15 18 -6 0 -7 -6 -3 -12 3 -7 -5
-1 -19 14 -15 14 -36 29 -47 33 -11 4 -18 11 -15 16 4 5 3 9 -2 9 -4 0 -22 13
-39 30 -30 27 -32 28 -37 10z"/>
<path d="M3650 2805 c0 -9 -4 -14 -9 -11 -5 4 -11 1 -13 -6 -3 -7 -15 -13 -29
-13 -14 0 -23 -5 -21 -13 2 -10 -2 -10 -18 -2 -13 7 -20 7 -20 1 0 -6 -7 -8
-15 -5 -8 4 -15 3 -15 -1 0 -9 47 -54 52 -50 2 2 21 6 43 9 22 4 42 11 44 17
1 6 9 15 15 22 7 6 10 21 8 34 -5 28 -22 41 -22 18z"/>
<path d="M4141 2789 c-34 -3 -67 -12 -71 -19 -4 -7 -13 -9 -20 -5 -9 5 -11 4
-6 -3 4 -7 1 -12 -8 -12 -10 0 -16 -9 -16 -21 0 -15 5 -19 15 -15 9 3 15 0 15
-10 0 -10 6 -14 14 -11 8 3 23 -3 34 -13 11 -10 22 -16 25 -14 3 3 8 -3 11
-14 4 -11 13 -23 21 -26 8 -3 15 -10 15 -16 0 -6 6 -18 13 -25 36 -41 35 -37
45 -183 4 -50 4 -92 0 -92 -4 0 -5 -7 -2 -15 4 -8 1 -22 -6 -30 -9 -11 -9 -15
-1 -15 7 0 9 -5 5 -12 -4 -6 4 -3 18 8 14 10 25 20 23 22 -2 2 10 16 26 31 16
15 26 31 22 34 -3 4 -1 7 6 7 7 0 9 5 6 10 -3 6 -2 10 4 10 5 0 16 19 24 43
34 101 36 107 24 107 -7 0 -6 4 3 10 8 5 11 10 5 10 -5 0 -11 19 -12 43 -2 23
-7 43 -13 45 -5 2 -10 10 -10 18 0 21 -63 114 -77 114 -7 0 -13 5 -13 10 0 6
-7 10 -15 10 -8 0 -15 5 -15 11 0 5 -4 8 -9 5 -5 -4 -11 -3 -13 1 -1 5 -32 5
-67 2z"/>
<path d="M3712 2754 c-16 -17 -16 -48 0 -38 15 9 2 -13 -26 -45 -12 -13 -15
-21 -8 -17 7 4 12 2 12 -6 0 -9 3 -10 8 -2 4 6 15 10 25 8 9 -1 15 1 12 6 -3
4 2 11 11 14 9 4 14 13 10 21 -3 8 -1 15 3 15 5 0 4 13 -1 28 -12 31 -27 36
-46 16z"/>
<path d="M3495 2643 c3 -7 1 -13 -4 -13 -6 0 -10 -3 -9 -7 4 -16 -21 -83 -36
-99 -9 -8 -14 -20 -11 -25 4 -5 1 -9 -5 -9 -6 0 -9 -3 -7 -7 2 -5 -7 -18 -20
-30 -13 -12 -23 -19 -23 -16 0 4 -11 -7 -23 -25 -13 -17 -27 -29 -31 -25 -3 4
-15 -3 -26 -15 -19 -20 -33 -26 -52 -23 -5 0 -8 -3 -8 -7 0 -5 -7 -9 -15 -10
-8 -1 -22 -3 -30 -4 -8 -1 -15 -4 -15 -8 0 -4 -11 -6 -25 -5 -14 2 -25 0 -25
-3 0 -4 -51 -6 -112 -5 l-113 2 37 -34 c20 -18 34 -36 31 -38 -2 -3 10 -11 26
-18 17 -8 31 -17 31 -21 0 -5 9 -8 20 -8 11 0 20 -5 20 -11 0 -5 5 -7 10 -4 6
3 10 1 10 -5 0 -6 4 -9 9 -6 5 4 11 2 13 -4 1 -5 15 -11 31 -12 15 -1 27 -6
27 -10 0 -9 185 -4 218 5 12 4 31 9 42 11 20 5 71 36 58 36 -4 0 11 18 33 40
21 21 39 42 39 46 0 4 6 12 14 18 15 12 59 136 47 136 -3 0 -7 9 -8 20 -1 13
3 18 10 14 7 -3 4 1 -6 9 -12 10 -14 16 -6 19 8 3 7 9 -5 20 -9 9 -16 24 -16
33 0 8 -7 18 -15 21 -8 4 -12 10 -9 15 3 5 0 9 -6 9 -5 0 -24 15 -41 33 -17
17 -28 26 -24 20z"/>
<path d="M3933 2597 c-3 -5 -11 -6 -19 -3 -8 3 -14 2 -15 -2 0 -4 -2 -15 -4
-24 -2 -11 3 -18 11 -18 9 0 13 -4 10 -9 -3 -5 1 -12 10 -15 8 -3 13 -10 10
-15 -3 -5 1 -12 10 -15 8 -3 12 -10 9 -16 -3 -5 -1 -10 4 -10 6 0 11 -9 11
-20 0 -11 3 -20 8 -20 4 0 9 -29 10 -65 2 -44 -1 -65 -9 -65 -8 0 -8 -4 1 -15
9 -10 9 -15 1 -15 -6 0 -11 -10 -11 -22 0 -25 -76 -168 -99 -185 -11 -9 -12
-12 -3 -13 7 0 11 -4 8 -8 -3 -5 10 -4 29 2 19 6 35 14 35 18 0 4 7 5 15 2 8
-4 15 -1 15 5 0 6 6 11 14 11 7 0 25 11 40 25 15 14 32 25 38 25 6 0 9 2 6 5
-3 3 12 23 34 44 21 21 38 43 37 47 -2 10 7 40 22 66 13 25 12 168 -2 168 -5
0 -8 4 -4 10 7 12 -21 80 -34 80 -5 0 -13 9 -16 21 -4 11 -9 18 -12 15 -3 -3
-19 2 -35 10 -29 15 -116 16 -125 1z"/>
<path d="M4959 2576 c-2 -3 -35 -6 -72 -7 -37 -1 -67 -5 -67 -8 0 -4 -16 -6
-35 -6 -19 1 -35 -1 -35 -5 0 -4 -6 -7 -12 -8 -27 -2 -72 -13 -90 -23 -10 -5
-22 -7 -27 -5 -5 3 -11 -1 -15 -9 -3 -8 -11 -15 -18 -15 -16 -1 -73 -52 -88
-79 -6 -12 -18 -21 -28 -22 -11 0 -12 -2 -4 -6 8 -3 4 -11 -13 -25 -14 -11
-23 -24 -20 -29 4 -5 3 -9 -2 -9 -4 0 -19 -17 -33 -38 -14 -20 -28 -39 -31
-42 -3 -3 -11 -15 -17 -26 -9 -17 -9 -24 2 -33 10 -8 16 -9 21 -1 4 6 12 7 24
0 12 -6 22 -5 29 2 8 8 12 8 12 2 0 -10 13 -14 53 -15 9 0 17 -4 17 -10 0 -5
16 -9 35 -9 19 0 35 -5 35 -11 0 -6 7 -9 15 -5 8 3 15 1 15 -5 0 -6 5 -7 10
-4 6 3 10 1 10 -5 0 -6 5 -8 10 -5 6 3 13 -1 16 -9 3 -9 10 -13 16 -10 5 3 16
-2 24 -12 9 -11 12 -12 8 -4 -4 8 4 5 18 -7 13 -13 30 -23 36 -23 7 0 12 -7
12 -15 0 -8 7 -15 15 -15 9 0 18 -7 21 -15 4 -8 10 -12 15 -9 5 3 9 -2 9 -10
0 -9 4 -16 10 -16 5 0 20 -11 34 -25 14 -14 22 -25 19 -25 -3 0 4 -8 15 -19
12 -10 22 -22 22 -27 0 -5 13 -23 30 -40 16 -18 26 -35 23 -38 -4 -3 -1 -6 6
-6 7 0 9 -4 6 -10 -3 -5 -2 -10 2 -10 5 0 14 -9 21 -21 11 -17 11 -20 0 -14
-7 3 -5 0 4 -8 10 -8 15 -17 11 -20 -3 -4 0 -7 7 -7 7 0 10 -3 7 -7 -4 -3 -2
-12 5 -20 6 -7 8 -16 5 -19 -3 -4 2 -15 12 -25 12 -13 25 -17 42 -13 13 3 32
7 42 7 9 1 17 5 17 10 0 5 7 7 15 3 8 -3 15 -2 15 3 0 4 7 8 14 8 11 0 13 -5
5 -19 -5 -10 -7 -18 -3 -18 4 0 -5 -10 -19 -23 -15 -12 -27 -27 -27 -33 0 -6
-10 -22 -23 -36 -13 -14 -22 -33 -21 -42 1 -9 -2 -16 -7 -16 -6 0 -5 -8 1 -20
8 -14 8 -20 0 -20 -8 0 -8 -6 0 -20 8 -14 8 -20 0 -20 -8 0 -8 -6 0 -20 8 -14
8 -20 0 -20 -8 0 -8 -6 0 -20 8 -14 8 -20 0 -20 -8 0 -8 -6 0 -20 8 -14 8 -20
0 -20 -8 0 -8 -6 0 -20 8 -14 8 -20 0 -20 -8 0 -8 -6 0 -20 8 -14 8 -20 0 -20
-8 0 -8 -6 0 -20 6 -11 7 -20 2 -20 -4 0 -9 -18 -10 -40 -2 -23 -7 -52 -12
-65 -7 -17 -6 -25 1 -25 8 0 8 -4 0 -14 -6 -8 -14 -29 -17 -47 -9 -57 -10 -63
-24 -109 -7 -25 -18 -51 -23 -58 -5 -7 -7 -15 -4 -19 4 -3 -1 -12 -11 -20 -9
-8 -12 -12 -5 -9 11 6 -23 -73 -36 -84 -10 -8 -12 -30 -2 -30 5 0 14 7 21 15
7 8 16 13 20 10 4 -3 11 2 14 11 4 9 9 14 12 11 3 -3 17 6 30 20 13 14 24 22
24 17 0 -5 5 -1 11 9 6 9 14 15 19 12 5 -3 11 4 15 15 3 11 13 20 21 20 8 0
14 3 14 8 0 4 13 16 29 27 16 10 27 23 25 27 -3 4 0 8 6 8 13 0 66 39 63 46
-2 2 -1 4 2 4 8 0 51 45 49 50 -1 3 4 11 12 18 8 7 14 10 14 7 0 -3 8 3 18 13
10 9 16 24 14 32 -3 8 -1 12 3 7 5 -4 17 5 27 20 10 16 18 24 18 19 0 -5 15
13 32 40 18 27 39 55 48 62 13 12 13 13 0 7 -12 -5 -12 -4 1 7 8 7 24 28 34
45 11 18 22 33 25 33 3 0 7 10 7 22 1 13 7 24 13 26 5 2 10 10 10 17 0 7 6 16
13 18 9 4 8 6 -2 6 -11 1 -10 6 4 21 10 11 15 20 12 20 -3 0 0 18 8 40 8 22
12 40 8 40 -3 0 -1 6 5 13 14 17 16 207 2 207 -8 0 -7 6 1 21 9 17 8 20 -3 13
-11 -6 -11 -5 1 9 7 9 9 17 4 17 -5 0 -10 12 -11 28 -4 42 -7 56 -15 70 -5 7
-3 12 5 12 8 0 7 4 -4 11 -11 6 -15 16 -11 26 4 10 2 14 -4 10 -6 -4 -9 3 -7
18 1 14 -3 25 -9 25 -8 0 -8 3 1 9 10 6 10 10 -2 21 -9 7 -13 16 -10 21 3 5 1
9 -5 9 -6 0 -8 7 -5 15 4 8 1 15 -6 15 -7 0 -10 7 -6 15 3 8 1 15 -4 15 -6 0
-10 3 -9 8 2 15 -14 52 -23 52 -5 0 -6 5 -3 10 3 6 1 10 -5 10 -7 0 -10 6 -7
13 2 6 -3 18 -12 25 -13 11 -13 12 -1 6 8 -4 5 3 -8 15 -12 12 -20 26 -17 32
4 5 2 9 -2 9 -5 0 -16 12 -25 28 -17 29 -75 99 -96 116 -7 6 -24 21 -37 34
-14 13 -25 21 -25 18 0 -3 -12 6 -26 19 -14 13 -29 23 -33 22 -3 -1 -18 7 -33
17 -15 10 -31 15 -37 12 -5 -3 -12 1 -15 10 -3 8 -10 12 -16 9 -5 -3 -10 -1
-10 4 0 6 -8 11 -18 11 -10 0 -22 3 -26 7 -3 4 -14 8 -24 9 -28 4 -61 12 -72
19 -6 3 -10 0 -10 -7 0 -9 -3 -9 -10 2 -5 8 -10 11 -10 5 0 -5 -4 -4 -8 3 -5
7 -10 10 -13 8z"/>
<path d="M3670 2558 c0 -4 6 -13 13 -20 8 -7 12 -20 9 -30 -2 -10 1 -18 8 -18
10 0 10 -3 1 -14 -8 -10 -9 -16 -1 -21 12 -7 14 -85 1 -85 -4 0 -6 -11 -4 -23
3 -13 -1 -30 -9 -38 -7 -8 -13 -20 -14 -26 -3 -39 -5 -44 -14 -38 -5 3 -10 -1
-10 -10 0 -17 -104 -125 -121 -125 -5 0 -7 -4 -4 -10 3 -5 0 -10 -8 -10 -8 0
-27 -10 -43 -22 -16 -13 -31 -22 -34 -22 -3 1 -10 -1 -17 -3 -9 -4 -9 -8 0
-18 9 -9 14 -10 19 -1 6 8 8 8 8 -1 0 -8 9 -11 22 -10 12 2 38 1 59 -3 21 -4
36 -3 33 1 -3 5 5 10 18 10 47 3 64 6 86 18 12 6 22 9 22 6 0 -10 85 47 108
73 12 14 22 22 22 17 0 -4 16 12 35 36 19 24 35 52 35 62 0 10 4 16 8 13 5 -3
9 39 9 92 0 85 -3 102 -23 137 -13 22 -24 36 -24 31 0 -5 -10 2 -22 15 -13 13
-30 25 -38 25 -8 0 -28 6 -43 12 -31 13 -87 13 -87 0z"/>
<path d="M2818 2212 c-4 -12 -2 -22 3 -22 6 0 5 -8 -1 -20 -8 -14 -8 -20 0
-20 6 0 8 -5 4 -11 -3 -6 -8 -27 -10 -47 -5 -53 -12 -107 -15 -109 -1 -2 -3
-7 -4 -13 -1 -5 -4 -12 -5 -15 -1 -3 -3 -8 -4 -12 -7 -30 -20 -59 -30 -65 -7
-5 -7 -8 3 -8 11 0 11 -3 0 -16 -7 -9 -15 -26 -16 -37 -2 -12 -8 -23 -13 -25
-6 -2 -10 -10 -10 -18 0 -8 -5 -14 -11 -14 -5 0 -8 -4 -4 -9 3 -5 -2 -16 -10
-25 -9 -8 -16 -18 -15 -21 1 -21 -1 -25 -10 -20 -5 3 -10 0 -10 -8 0 -7 -9
-23 -20 -35 -12 -12 -17 -22 -13 -22 4 0 0 -5 -9 -11 -10 -5 -18 -17 -18 -25
0 -8 -4 -13 -8 -10 -5 3 -15 -6 -22 -19 -7 -13 -16 -23 -19 -21 -3 1 -14 -5
-23 -16 -10 -10 -16 -18 -13 -18 3 0 0 -6 -7 -14 -7 -8 -16 -12 -20 -9 -5 2
-8 -4 -8 -13 0 -10 -3 -15 -6 -11 -3 3 -16 -5 -29 -18 -12 -14 -25 -22 -28
-18 -4 3 -7 1 -7 -5 0 -7 -7 -12 -16 -12 -8 0 -13 -4 -10 -9 3 -4 -12 -17 -33
-27 -22 -10 -37 -22 -35 -25 4 -7 -34 -22 -48 -20 -5 1 -8 -4 -8 -9 0 -6 -7
-10 -15 -10 -8 0 -15 -5 -15 -11 0 -6 -7 -8 -16 -5 -8 3 -12 2 -9 -4 3 -6 2
-10 -4 -10 -5 0 -37 -12 -70 -27 -60 -26 -60 -27 -45 -50 8 -13 12 -28 9 -33
-3 -6 2 -10 12 -11 10 0 13 -3 6 -6 -9 -3 -7 -11 7 -25 11 -12 17 -25 14 -30
-3 -4 0 -8 5 -8 6 0 11 -9 11 -20 0 -11 4 -20 8 -20 4 0 13 -13 19 -30 11 -29
11 -30 -15 -23 -15 3 -30 11 -33 16 -4 5 -14 7 -23 4 -9 -4 -16 -2 -16 3 0 5
-7 7 -15 4 -8 -4 -15 -1 -15 5 0 6 -6 8 -14 5 -8 -3 -17 0 -21 5 -3 6 -11 8
-17 5 -6 -4 -13 -2 -17 4 -3 5 -17 12 -31 13 -14 2 -27 7 -30 10 -3 4 -18 8
-35 10 -16 2 -34 6 -40 10 -5 3 -23 10 -40 14 -40 11 -44 12 -52 15 -5 1 -12
2 -17 1 -5 -1 -13 4 -17 11 -7 10 -9 10 -9 -2 0 -11 -2 -12 -8 -3 -5 7 -20 14
-35 15 -15 1 -27 7 -27 13 0 5 -5 3 -10 -5 -6 -10 -10 -11 -10 -2 0 8 -20 12
-67 12 -38 0 -74 4 -82 9 -8 5 -24 6 -37 1 -13 -5 -26 -6 -28 -1 -3 4 -21 8
-41 9 -19 1 -43 6 -54 11 -12 7 -22 6 -29 -1 -7 -7 -12 -8 -12 -2 0 5 -10 10
-22 11 -11 1 -24 7 -28 14 -6 8 -9 8 -14 0 -5 -8 -13 -8 -27 0 -12 6 -33 13
-47 15 -15 3 -32 10 -38 15 -8 7 -13 6 -16 -1 -2 -7 -14 -3 -31 10 -15 12 -27
17 -27 11 0 -6 -12 -4 -28 5 -15 7 -35 14 -44 14 -10 0 -18 4 -18 8 0 4 -10 9
-22 9 -13 1 -24 7 -26 13 -2 5 -9 10 -15 10 -17 0 -121 43 -128 54 -7 9 -29 0
-29 -12 0 -4 11 -19 25 -34 14 -15 25 -31 25 -36 0 -5 11 -18 25 -30 14 -12
25 -28 25 -36 0 -7 11 -21 24 -32 14 -10 23 -21 20 -26 -3 -4 1 -8 9 -8 8 0
20 -13 27 -30 7 -16 16 -27 21 -24 5 3 9 -2 9 -11 0 -9 5 -13 10 -10 6 3 10 1
10 -4 0 -11 42 -63 68 -85 30 -26 72 -72 72 -79 0 -5 4 -6 9 -2 5 3 12 -4 16
-15 3 -11 12 -20 19 -20 7 0 19 -11 26 -25 7 -14 15 -23 18 -20 6 6 32 -21 32
-34 0 -5 9 -13 20 -16 11 -4 18 -11 15 -16 -4 -5 -1 -9 6 -9 6 0 26 -12 44
-27 53 -45 97 -78 114 -85 9 -4 12 -7 6 -7 -5 -1 6 -11 25 -23 19 -12 38 -21
43 -20 4 1 7 -1 7 -6 0 -4 21 -19 48 -32 26 -14 48 -28 50 -32 2 -5 12 -8 23
-8 10 0 19 -5 19 -11 0 -5 4 -7 10 -4 5 3 10 1 10 -6 0 -7 3 -10 6 -6 4 3 13
-1 22 -9 12 -13 16 -13 23 -2 7 11 9 11 9 0 0 -7 4 -11 9 -8 5 3 12 -1 15 -10
3 -8 11 -12 16 -9 6 4 16 2 23 -4 7 -5 25 -12 40 -15 15 -2 31 -7 36 -10 5 -4
12 0 14 6 4 10 6 10 6 1 1 -8 15 -13 37 -13 23 0 33 -4 28 -11 -5 -8 -1 -8 13
0 11 6 23 7 27 4 9 -9 46 -11 46 -3 0 9 32 6 48 -4 6 -4 12 -3 12 2 0 4 23 9
52 11 29 1 58 7 65 13 9 7 13 7 13 -1 0 -7 5 -9 11 -5 11 6 19 8 103 18 22 3
42 8 45 13 3 4 22 9 41 10 19 1 36 7 38 12 2 5 10 7 18 4 8 -3 20 -1 27 5 11
9 64 25 69 20 2 -1 14 5 28 12 14 8 30 15 35 16 6 1 37 14 70 29 33 16 63 27
68 27 4 -1 7 3 7 9 0 6 6 9 14 6 7 -3 20 3 29 14 9 10 24 19 32 19 8 0 15 4
15 10 0 5 3 9 8 8 11 -3 92 53 92 64 0 5 4 6 10 3 5 -3 20 4 32 17 13 13 40
38 61 56 21 17 35 32 33 32 -3 0 10 16 30 35 19 19 32 35 29 35 -3 0 8 19 25
42 16 22 30 47 30 55 0 7 5 13 11 13 6 0 9 6 6 14 -3 8 1 17 9 20 8 3 13 9 12
13 -1 8 15 50 33 86 6 12 5 17 -3 17 -9 0 -10 3 -2 8 10 6 23 45 26 80 1 6 4
12 8 12 4 0 5 11 3 24 -3 13 0 27 7 31 8 5 8 10 -1 21 -6 8 -7 14 -2 14 5 0 9
8 9 18 1 36 14 134 20 143 3 5 1 9 -5 9 -10 0 -9 19 2 38 5 7 3 12 -4 12 -10
0 -10 3 -2 11 8 8 8 20 3 35 -5 13 -10 39 -12 59 -1 19 -6 35 -11 35 -4 0 -5
4 -2 10 3 5 1 19 -5 30 -6 12 -13 30 -15 41 -2 11 -11 26 -20 35 -8 9 -12 20
-9 26 4 6 3 8 -3 5 -5 -4 -16 5 -23 18 -7 14 -17 25 -22 25 -4 0 -8 6 -8 14 0
8 -9 18 -20 21 -11 3 -20 11 -20 16 0 5 -7 9 -15 9 -8 0 -15 5 -15 10 0 6 -6
10 -13 10 -7 0 -19 9 -27 19 -7 11 -17 18 -22 15 -4 -3 -8 0 -8 7 0 7 -3 10
-6 6 -9 -8 -33 16 -26 27 3 5 0 6 -5 3 -6 -4 -28 9 -49 28 -21 19 -42 35 -47
35 -4 0 -5 5 -2 10 3 6 -1 10 -10 10 -9 0 -14 4 -11 8 3 5 -6 15 -19 22 -14 7
-27 21 -31 32 -3 10 -11 18 -19 18 -7 0 -15 6 -17 12 -3 7 -7 2 -10 -10z"/>
<path d="M4305 2092 c-16 -2 -35 -8 -42 -13 -7 -7 -13 -5 -15 3 -4 10 -8 10
-19 2 -8 -7 -29 -15 -46 -19 -18 -3 -33 -10 -33 -15 0 -5 -9 -7 -20 -5 -11 2
-20 0 -20 -5 0 -5 -13 -11 -30 -15 -16 -4 -30 -11 -30 -17 0 -6 -6 -8 -14 -5
-8 3 -16 1 -18 -4 -2 -6 -11 -11 -20 -12 -9 -2 -22 -8 -30 -15 -8 -6 -18 -9
-21 -5 -4 3 -7 1 -7 -5 0 -7 -3 -11 -7 -10 -16 3 -43 -15 -43 -28 0 -8 4 -14
9 -14 4 0 25 -11 45 -25 20 -13 36 -21 36 -17 0 4 5 -1 11 -11 6 -9 16 -14 22
-11 7 4 9 4 5 -1 -7 -7 14 -35 26 -35 9 0 54 -49 49 -53 -2 -3 5 -8 16 -12 12
-3 21 -11 21 -16 0 -5 11 -22 24 -36 14 -15 23 -30 20 -35 -3 -4 0 -8 5 -8 6
0 11 -7 11 -15 0 -8 5 -15 11 -15 6 0 9 -7 5 -15 -3 -9 0 -15 10 -15 8 0 14
-6 13 -12 -1 -7 8 -35 20 -62 12 -27 19 -51 16 -54 -3 -3 0 -11 6 -19 6 -7 9
-13 5 -13 -3 0 -1 -11 4 -25 5 -13 10 -40 12 -60 1 -19 5 -35 8 -35 8 0 5 -43
-4 -58 -4 -7 -2 -12 4 -12 6 0 8 -5 3 -12 -11 -19 -12 -38 -2 -38 6 0 5 -8 -1
-20 -6 -11 -7 -20 -3 -20 11 0 9 -42 -2 -60 -5 -9 -4 -15 4 -18 9 -3 9 -7 1
-17 -6 -8 -10 -26 -8 -42 2 -22 8 -28 29 -29 15 -1 34 -4 43 -7 9 -4 16 -2 16
4 0 6 21 9 49 8 36 -2 48 -6 44 -16 -3 -7 -11 -13 -19 -13 -7 0 -18 -8 -23
-17 -6 -10 -11 -14 -11 -9 0 5 -9 -3 -21 -18 -11 -14 -24 -24 -27 -22 -10 5
-32 -20 -25 -28 4 -3 1 -6 -5 -6 -6 0 -17 -6 -24 -13 -7 -6 -28 -24 -46 -40
-19 -15 -31 -27 -28 -27 3 0 -6 -11 -19 -24 -13 -13 -27 -36 -31 -50 -3 -14
-10 -26 -15 -26 -5 0 -9 -7 -9 -15 0 -9 -6 -18 -14 -21 -8 -3 -13 -11 -10 -18
3 -7 -2 -19 -11 -26 -8 -7 -15 -19 -15 -27 0 -8 -4 -11 -10 -8 -5 3 -10 1 -10
-5 0 -6 -16 -34 -36 -63 -35 -51 -55 -76 -39 -48 5 9 4 12 -3 7 -7 -4 -12 -12
-12 -18 0 -6 -13 -23 -29 -39 -16 -15 -27 -30 -23 -33 3 -3 -2 -6 -12 -6 -9 0
-14 -4 -11 -10 3 -5 2 -10 -4 -10 -13 0 -61 -47 -54 -53 2 -3 -5 -8 -16 -12
-12 -3 -21 -11 -21 -17 0 -6 -3 -9 -6 -6 -3 3 -18 -6 -34 -20 -47 -43 -64 -57
-68 -54 -2 2 -12 -6 -21 -17 -10 -11 -20 -18 -23 -16 -3 3 -11 -1 -18 -10 -7
-8 -20 -15 -29 -15 -13 0 -14 -2 -1 -9 8 -6 18 -7 22 -5 4 3 8 -1 8 -8 0 -9 3
-9 10 2 8 12 10 12 10 1 0 -10 3 -11 13 -2 8 6 17 8 20 4 4 -3 7 -1 7 6 0 7 5
9 10 6 6 -4 18 -1 27 7 14 11 16 11 9 0 -7 -11 -4 -12 11 -3 11 5 38 11 59 12
21 2 49 9 62 17 18 12 22 12 22 1 0 -9 3 -10 8 -4 4 6 18 11 32 12 49 5 60 7
60 13 0 4 6 7 13 8 26 2 71 13 90 23 14 8 17 8 13 0 -4 -5 18 1 48 14 29 13
56 22 58 19 3 -2 23 5 46 16 22 11 45 20 51 20 5 0 12 6 14 13 4 9 6 8 6 -2 1
-11 6 -10 23 5 14 13 19 14 14 4 -6 -12 -4 -11 6 1 7 9 21 15 31 13 9 -1 17 2
17 6 0 5 25 20 56 34 32 15 63 34 71 44 9 10 11 11 7 2 -7 -13 -6 -13 11 0 11
8 28 24 38 35 10 11 16 14 12 7 -12 -23 6 -12 45 30 22 23 40 38 40 35 0 -4
16 10 35 32 19 21 35 41 35 45 0 4 9 16 20 28 11 12 20 28 20 35 0 7 5 13 11
13 5 0 7 5 4 10 -3 6 -2 10 4 10 5 0 12 14 16 30 4 17 11 30 16 30 6 0 7 5 4
10 -4 6 -1 18 6 26 7 9 14 26 16 37 3 20 9 40 33 102 21 59 27 85 19 85 -5 0
-3 13 5 29 9 16 13 31 10 34 -3 3 -1 15 6 26 8 16 8 21 -2 21 -9 0 -9 3 0 12
7 7 12 31 12 54 0 24 5 46 11 50 8 5 8 9 -1 14 -7 5 -9 13 -4 21 10 17 12 59
1 59 -4 0 -3 9 3 20 6 12 7 20 1 20 -11 0 -9 19 3 39 5 8 4 16 -2 20 -5 3 -11
35 -13 71 -2 36 -7 68 -11 71 -5 3 -9 17 -10 32 -1 15 -5 27 -9 27 -4 0 -6 12
-6 26 0 15 -6 30 -12 34 -7 4 -13 13 -15 21 -1 8 -7 24 -14 35 -6 12 -8 25 -4
29 4 5 2 5 -5 1 -7 -3 -14 2 -18 14 -4 11 -18 32 -31 45 -13 14 -23 27 -22 29
5 7 -41 56 -52 56 -5 0 -10 6 -10 13 -1 12 -64 57 -81 57 -6 0 -7 5 -4 10 3 6
-1 10 -9 10 -9 0 -16 5 -16 10 0 6 -9 10 -20 10 -11 0 -20 5 -20 10 0 6 -7 10
-16 10 -8 0 -23 7 -32 16 -10 11 -17 13 -20 5 -2 -7 -9 -5 -19 5 -12 11 -18
12 -23 4 -6 -9 -9 -9 -11 -1 -4 11 -44 20 -104 25 -16 1 -36 5 -42 9 -8 5 -13
3 -13 -4 0 -7 -4 -8 -12 -2 -7 5 -26 7 -43 5z"/>
<path d="M3410 1933 c0 -5 -19 -7 -41 -5 -32 3 -40 1 -35 -9 3 -8 9 -22 12
-31 4 -10 11 -18 16 -18 5 0 6 -4 3 -10 -3 -5 -1 -10 5 -10 6 0 8 -4 5 -10 -3
-5 -1 -10 5 -10 6 0 8 -4 5 -10 -3 -5 -2 -10 4 -10 6 0 8 -6 5 -14 -3 -8 -1
-17 5 -21 6 -3 11 -15 11 -26 0 -10 5 -19 11 -19 6 0 8 -8 4 -19 -3 -11 -1
-22 4 -25 6 -4 8 -13 4 -21 -3 -8 0 -15 7 -15 10 0 10 -3 1 -14 -8 -9 -8 -15
-1 -18 5 -1 11 -22 13 -45 1 -24 5 -43 9 -43 8 0 5 -21 -5 -37 -5 -8 -3 -13 3
-13 6 0 8 -5 4 -12 -11 -17 -11 -58 -1 -58 4 0 3 -8 -2 -17 -5 -10 -10 -34
-12 -53 -2 -19 -5 -39 -8 -45 -3 -5 -6 -14 -7 -20 -5 -33 -29 -106 -45 -139
-10 -21 -16 -42 -14 -47 3 -4 2 -9 -3 -11 -4 -1 -25 -34 -46 -73 -21 -38 -43
-73 -50 -77 -6 -4 -11 -11 -12 -15 -2 -20 -17 -42 -25 -37 -5 3 -6 -3 -2 -13
3 -10 3 -15 -2 -11 -4 4 -19 -7 -32 -23 l-26 -30 31 -30 c17 -16 41 -32 54
-34 12 -3 24 -9 26 -15 2 -6 8 -8 13 -4 5 3 9 0 9 -6 0 -6 4 -9 9 -6 8 5 26
-23 19 -29 -2 -2 -20 -5 -42 -8 -21 -3 -41 -9 -45 -14 -3 -4 -15 -9 -26 -9
-49 -4 -98 -14 -110 -24 -7 -6 -20 -8 -29 -4 -9 3 -16 2 -16 -4 0 -5 -12 -8
-27 -6 -16 2 -42 -8 -68 -26 -24 -16 -45 -26 -49 -23 -3 4 -6 1 -6 -5 0 -6
-20 -21 -45 -32 -25 -11 -45 -25 -45 -30 0 -5 -7 -7 -15 -4 -8 4 -15 1 -15 -6
0 -6 -4 -9 -9 -5 -5 3 -13 0 -16 -6 -4 -5 -14 -8 -22 -5 -8 3 -11 1 -8 -4 3
-6 -3 -10 -14 -10 -10 0 -21 -4 -23 -9 -1 -6 -14 -12 -28 -14 -14 -3 -38 -11
-55 -18 -16 -7 -33 -12 -37 -11 -5 1 -8 -3 -8 -9 0 -5 -5 -7 -10 -4 -6 4 -17
2 -24 -4 -7 -6 -27 -12 -45 -13 -18 -1 -35 -6 -37 -10 -3 -4 -16 -8 -30 -8
-13 0 -24 -4 -24 -8 0 -4 -8 -8 -17 -9 -48 -3 -73 -8 -73 -16 0 -5 -6 -5 -13
1 -8 7 -18 7 -27 2 -8 -6 -26 -10 -40 -10 -15 0 -31 -5 -38 -12 -9 -9 -12 -9
-12 1 0 7 -4 10 -8 7 -5 -3 -27 -6 -50 -7 -23 -2 -42 -6 -42 -9 0 -3 -16 -4
-35 -2 -29 3 -34 1 -29 -11 3 -9 12 -13 21 -10 8 3 19 0 24 -8 4 -8 14 -14 21
-14 27 -2 68 -18 68 -27 0 -5 5 -6 10 -3 6 4 24 -1 42 -9 17 -9 37 -16 45 -16
7 0 13 -6 13 -12 0 -10 2 -10 9 0 7 11 9 10 15 -3 3 -9 11 -13 16 -10 6 4 16
2 23 -4 7 -5 24 -12 37 -15 25 -4 44 -10 78 -23 9 -3 25 -7 35 -7 10 -1 22 -7
26 -15 6 -10 10 -10 16 -1 5 8 12 7 26 -6 13 -12 19 -13 19 -4 0 10 3 10 15 0
8 -7 21 -10 30 -7 8 4 17 1 21 -4 3 -6 15 -9 25 -6 10 3 22 0 26 -5 4 -7 1 -8
-7 -3 -8 5 -11 4 -7 -3 4 -5 16 -8 27 -5 11 3 27 0 35 -7 8 -7 15 -8 15 -3 0
12 49 5 67 -9 7 -6 13 -4 16 4 4 11 6 10 6 0 1 -7 6 -10 11 -7 6 3 10 3 10 -2
0 -4 25 -8 55 -7 30 0 55 -3 55 -8 0 -5 9 -4 20 2 14 8 20 8 20 0 0 -8 6 -8
20 0 14 8 20 8 20 0 0 -8 6 -8 20 0 14 8 20 8 20 0 0 -8 6 -8 20 0 14 8 20 8
20 0 0 -6 4 -9 9 -6 4 3 33 8 62 12 30 3 59 11 66 16 7 5 14 5 17 -1 4 -6 16
-4 33 4 15 8 30 12 35 9 5 -3 15 0 23 6 8 7 15 9 15 4 0 -5 5 -2 10 6 9 13 10
13 10 0 1 -12 3 -11 11 3 6 9 14 15 20 12 5 -4 9 -1 9 4 0 6 3 11 8 10 15 -2
52 14 52 22 0 5 6 9 14 9 7 0 43 22 80 50 36 27 66 47 66 45 0 -3 14 9 30 27
17 17 30 27 30 22 0 -5 9 5 20 21 11 17 20 27 20 23 0 -4 11 3 25 16 14 13 25
29 25 35 0 7 4 10 9 6 5 -3 13 4 16 16 4 11 9 18 12 15 4 -3 16 8 28 24 12 16
24 28 26 26 2 -3 29 31 59 75 30 44 62 88 70 98 8 10 31 49 50 87 19 38 38 71
41 74 4 3 9 15 13 28 4 12 13 22 19 22 8 0 8 3 -1 9 -11 7 -11 11 2 23 8 9 12
18 9 22 -3 3 -1 12 6 20 6 7 14 27 16 42 3 16 8 48 11 72 4 23 11 42 17 42 6
0 5 5 -2 13 -8 10 -7 17 1 25 9 9 9 12 -1 12 -10 0 -11 3 -3 13 7 8 7 18 2 27
-5 9 -5 19 2 27 8 10 7 13 -3 13 -10 0 -10 3 -1 12 7 7 8 17 1 30 -5 10 -7 18
-3 18 3 0 1 7 -6 15 -9 11 -9 15 -1 15 9 0 8 6 -1 23 -7 12 -11 28 -9 35 1 8
-3 20 -10 28 -9 11 -9 14 2 14 8 0 6 6 -7 16 -10 8 -12 12 -4 8 12 -6 13 -4 3
7 -7 7 -13 21 -13 31 0 10 -5 18 -11 18 -5 0 -7 5 -4 10 3 6 2 10 -4 10 -6 0
-8 7 -5 15 4 8 2 15 -3 15 -5 0 -15 16 -23 35 -8 19 -17 35 -22 35 -4 0 -8 5
-8 10 0 6 -13 24 -30 40 -16 16 -30 34 -30 39 0 5 -9 13 -20 16 -11 3 -20 13
-20 21 0 8 -4 14 -10 14 -5 0 -18 8 -28 18 -17 17 -82 66 -92 68 -32 9 -50 18
-50 24 0 9 -40 25 -52 22 -5 -1 -8 3 -8 8 0 5 -3 9 -7 9 -5 -1 -10 0 -13 1 -8
3 -42 9 -87 15 -23 3 -62 9 -87 14 -25 5 -48 6 -51 3 -3 -3 -5 0 -5 8 0 9 -3
10 -13 1 -10 -8 -17 -7 -25 1 -7 7 -12 9 -12 5 0 -4 -9 -3 -20 3 -11 6 -20 7
-20 3z"/>
</g>
</svg>
